<svg xmlns="http://www.w3.org/2000/svg" viewBox="0 0 36 36" fill="none" aria-hidden="true">
  <path d="M10.5 34.5C9.675 34.5 8.969 34.2065 8.382 33.6195C7.795 33.0325 7.501 32.326 7.5 31.5V4.5C7.5 3.675 7.794 2.969 8.382 2.382C8.97 1.795 9.676 1.501 10.5 1.5H25.5C26.325 1.5 27.0315 1.794 27.6195 2.382C28.2075 2.97 28.501 3.676 28.5 4.5V9.15C28.95 9.325 29.3125 9.6 29.5875 9.975C29.8625 10.35 30 10.775 30 11.25V14.25C30 14.725 29.8625 15.15 29.5875 15.525C29.3125 15.9 28.95 16.175 28.5 16.35V31.5C28.5 32.325 28.2065 33.0315 27.6195 33.6195C27.0325 34.2075 26.326 34.501 25.5 34.5H10.5ZM10.5 31.5H25.5V4.5H10.5V31.5ZM19.0695 8.568C19.3565 8.281 19.5 7.925 19.5 7.5C19.5 7.075 19.356 6.719 19.068 6.432C18.78 6.145 18.424 6.001 18 6C17.576 5.999 17.22 6.143 16.932 6.432C16.644 6.721 16.5 7.077 16.5 7.5C16.5 7.923 16.644 8.2795 16.932 8.5695C17.22 8.8595 17.576 9.003 18 9C18.424 8.997 18.7805 8.853 19.0695 8.568Z" fill="#fff"/>
</svg>
