<svg xmlns="http://www.w3.org/2000/svg" viewBox="0 0 38 38" fill="none" aria-hidden="true">
  <path d="M19 14.25C20.3117 14.25 21.375 13.1867 21.375 11.875C21.375 10.5633 20.3117 9.5 19 9.5C17.6883 9.5 16.625 10.5633 16.625 11.875C16.625 13.1867 17.6883 14.25 19 14.25Z" fill="#fff"/>
  <path d="M19 3.16667C15.8685 3.16667 12.8072 4.09528 10.2035 5.83506C7.59969 7.57485 5.5703 10.0477 4.37191 12.9408C3.17352 15.834 2.85997 19.0176 3.4709 22.0889C4.08183 25.1603 5.58981 27.9815 7.80414 30.1959C10.0185 32.4102 12.8397 33.9182 15.9111 34.5291C18.9824 35.14 22.166 34.8265 25.0592 33.6281C27.9523 32.4297 30.4251 30.4003 32.1649 27.7965C33.9047 25.1928 34.8333 22.1315 34.8333 19C34.8333 16.9207 34.4238 14.8618 33.6281 12.9408C32.8324 11.0199 31.6661 9.2744 30.1959 7.80414C28.7256 6.33388 26.9801 5.16761 25.0592 4.37191C23.1382 3.57621 21.0793 3.16667 19 3.16667ZM19 31.6667C16.4948 31.6667 14.0458 30.9238 11.9628 29.5319C9.87975 28.1401 8.25624 26.1619 7.29753 23.8473C6.33882 21.5328 6.08797 18.9859 6.57672 16.5289C7.06547 14.0718 8.27185 11.8148 10.0433 10.0433C11.8148 8.27185 14.0718 7.06547 16.5289 6.57672C18.9859 6.08797 21.5328 6.33882 23.8473 7.29753C26.1619 8.25624 28.1401 9.87975 29.5319 11.9628C30.9238 14.0458 31.6667 16.4948 31.6667 19C31.6667 22.3594 30.3321 25.5812 27.9567 27.9567C25.5812 30.3321 22.3594 31.6667 19 31.6667Z" fill="#fff"/>
  <path d="M26.125 16.625L25.3333 14.25L20.5833 15.8333H17.4167L12.6667 14.25L11.875 16.625L16.625 18.2083V20.5833L14.25 27.3125L16.625 28.5L18.6042 22.9583H19.3958L21.375 28.5L23.75 27.3125L21.375 20.5833V18.2083L26.125 16.625Z" fill="#fff"/>
</svg>
